<svg xmlns="http://www.w3.org/2000/svg" xmlns:xlink="http://www.w3.org/1999/xlink" viewBox="0 0 2161.79 357.73"><defs><style>.cls-1{isolation:isolate;}.cls-10,.cls-11,.cls-12,.cls-13,.cls-14,.cls-15,.cls-16,.cls-17,.cls-18,.cls-19,.cls-2,.cls-20,.cls-21,.cls-22,.cls-23,.cls-24,.cls-25,.cls-26,.cls-27,.cls-28,.cls-29,.cls-3,.cls-30,.cls-31,.cls-4,.cls-5,.cls-6,.cls-7,.cls-8,.cls-9{mix-blend-mode:screen;}.cls-2{fill:url(#radial-gradient);}.cls-3{fill:url(#radial-gradient-2);}.cls-4{fill:url(#radial-gradient-3);}.cls-5{fill:url(#radial-gradient-4);}.cls-6{fill:url(#radial-gradient-5);}.cls-7{fill:url(#radial-gradient-6);}.cls-8{fill:url(#radial-gradient-7);}.cls-9{fill:url(#radial-gradient-8);}.cls-10{fill:url(#radial-gradient-9);}.cls-11{fill:url(#radial-gradient-10);}.cls-12{fill:url(#radial-gradient-11);}.cls-13{fill:url(#radial-gradient-12);}.cls-14{fill:url(#radial-gradient-13);}.cls-15{fill:url(#radial-gradient-14);}.cls-16{fill:url(#radial-gradient-15);}.cls-17{fill:url(#radial-gradient-16);}.cls-18{fill:url(#radial-gradient-17);}.cls-19{fill:url(#radial-gradient-18);}.cls-20{fill:url(#radial-gradient-19);}.cls-21{fill:url(#radial-gradient-20);}.cls-22{fill:url(#radial-gradient-21);}.cls-23{fill:url(#radial-gradient-22);}.cls-24{fill:url(#radial-gradient-23);}.cls-25{fill:url(#radial-gradient-24);}.cls-26{fill:url(#radial-gradient-25);}.cls-27{fill:url(#radial-gradient-26);}.cls-28{fill:url(#radial-gradient-27);}.cls-29{fill:url(#radial-gradient-28);}.cls-30{fill:url(#radial-gradient-29);}.cls-31{fill:url(#radial-gradient-30);}</style><radialGradient id="radial-gradient" cx="600.18" cy="1055.45" r="1.34" gradientTransform="translate(-3177.52 24025.72) rotate(-139.87) scale(20)" gradientUnits="userSpaceOnUse"><stop offset="0.04" stop-color="#7498d6"/><stop offset="0.08" stop-color="#6483b8"/><stop offset="0.18" stop-color="#415577"/><stop offset="0.27" stop-color="#253044"/><stop offset="0.34" stop-color="#11161f"/><stop offset="0.4" stop-color="#040608"/><stop offset="0.44"/></radialGradient><radialGradient id="radial-gradient-2" cx="749.97" cy="1538.15" r="1.34" gradientTransform="matrix(13.41, -14.84, 14.84, 13.41, -31053.69, -9346.72)" xlink:href="#radial-gradient"/><radialGradient id="radial-gradient-3" cx="208.43" cy="1656.57" r="1.34" gradientTransform="translate(-20670.64 -24845.29) rotate(-34.68) scale(20)" xlink:href="#radial-gradient"/><radialGradient id="radial-gradient-4" cx="1067.88" cy="1058.43" r="1.34" gradientTransform="translate(23726.6 20461.12) rotate(177.87) scale(20)" xlink:href="#radial-gradient"/><radialGradient id="radial-gradient-5" cx="733.88" cy="1327.19" r="1.34" gradientTransform="translate(-24084.74 -17965.14) rotate(-23.96) scale(20)" xlink:href="#radial-gradient"/><radialGradient id="radial-gradient-6" cx="302.28" cy="1414.26" r="1.34" gradientTransform="matrix(-8.09, -18.29, 18.29, -8.09, -22809.2, 17087.56)" xlink:href="#radial-gradient"/><radialGradient id="radial-gradient-7" cx="930.31" cy="1860.71" r="1.34" gradientTransform="matrix(19.06, 6.07, -6.07, 19.06, -5695.33, -41033.07)" xlink:href="#radial-gradient"/><radialGradient id="radial-gradient-8" cx="653.02" cy="1574.56" r="1.34" gradientTransform="translate(34127.41 2682.16) rotate(116.51) scale(20)" xlink:href="#radial-gradient"/><radialGradient id="radial-gradient-9" cx="1292.5" cy="1313.01" r="1.34" gradientTransform="translate(37514.52 9055.03) rotate(148.61) scale(20)" xlink:href="#radial-gradient"/><radialGradient id="radial-gradient-10" cx="1210.64" cy="1627.68" r="1.34" gradientTransform="matrix(-10.67, 16.92, -16.92, -10.67, 42208.09, -2786.43)" xlink:href="#radial-gradient"/><radialGradient id="radial-gradient-11" cx="635.75" cy="1645.68" r="1.34" gradientTransform="translate(34880.92 -6855.05) rotate(99.38) scale(20)" xlink:href="#radial-gradient"/><radialGradient id="radial-gradient-12" cx="638.59" cy="1385.18" r="1.34" gradientTransform="matrix(15.41, 12.75, -12.75, 15.41, 7852.34, -29161.76)" xlink:href="#radial-gradient"/><radialGradient id="radial-gradient-13" cx="784.36" cy="1533.95" r="1.34" gradientTransform="translate(19478.18 28678.34) rotate(172.88) scale(20)" xlink:href="#radial-gradient"/><radialGradient id="radial-gradient-14" cx="740.37" cy="1509.57" r="1.34" gradientTransform="translate(26918.69 20324.37) rotate(153.05) scale(20)" xlink:href="#radial-gradient"/><radialGradient id="radial-gradient-15" cx="884.41" cy="1840.57" r="1.34" gradientTransform="translate(15992.06 -37866.52) rotate(46.8) scale(20)" xlink:href="#radial-gradient"/><radialGradient id="radial-gradient-16" cx="871.73" cy="1540.72" r="1.34" gradientTransform="translate(22889.83 -28233.67) rotate(65.91) scale(20)" xlink:href="#radial-gradient"/><radialGradient id="radial-gradient-17" cx="940.74" cy="1897.68" r="1.34" gradientTransform="translate(31304.89 -29954.69) rotate(70.82) scale(20)" xlink:href="#radial-gradient"/><radialGradient id="radial-gradient-18" cx="509.57" cy="1606.8" r="1.34" gradientTransform="translate(30619 18033.68) rotate(139.88) scale(20)" xlink:href="#radial-gradient"/><radialGradient id="radial-gradient-19" cx="748.67" cy="1765.75" r="1.34" gradientTransform="translate(-8856.22 36955.67) rotate(-140.37) scale(20)" xlink:href="#radial-gradient"/><radialGradient id="radial-gradient-20" cx="642.31" cy="1613.16" r="1.34" gradientTransform="translate(29150.31 -19212.81) rotate(77.77) scale(20)" xlink:href="#radial-gradient"/><radialGradient id="radial-gradient-21" cx="918.34" cy="1961.83" r="1.34" gradientTransform="translate(27873.13 -34335.83) rotate(62.3) scale(20)" xlink:href="#radial-gradient"/><radialGradient id="radial-gradient-22" cx="385.64" cy="1164.06" r="1.34" gradientTransform="translate(-15368.6 18214.58) rotate(-119.51) scale(20)" xlink:href="#radial-gradient"/><radialGradient id="radial-gradient-23" cx="270.93" cy="1564.11" r="1.34" gradientTransform="translate(-24910.77 -17559.78) rotate(-46.28) scale(20)" xlink:href="#radial-gradient"/><radialGradient id="radial-gradient-24" cx="287.97" cy="1496.88" r="1.34" gradientTransform="translate(-27723.15 11259.17) rotate(-100.63) scale(20)" xlink:href="#radial-gradient"/><radialGradient id="radial-gradient-25" cx="765.32" cy="1733.05" r="1.34" gradientTransform="translate(-5201.34 -37225.49) rotate(14.55) scale(20)" xlink:href="#radial-gradient"/><radialGradient id="radial-gradient-26" cx="750.44" cy="1739.81" r="1.34" gradientTransform="translate(-5201.34 -37225.49) rotate(14.55) scale(20)" xlink:href="#radial-gradient"/><radialGradient id="radial-gradient-27" cx="989.31" cy="1843.43" r="1.34" gradientTransform="translate(21414.36 -36569.73) rotate(56.99) scale(20)" xlink:href="#radial-gradient"/><radialGradient id="radial-gradient-28" cx="650.34" cy="1301.93" r="1.34" gradientTransform="matrix(18.36, -7.92, 7.92, 18.36, -21960.65, -18447.22)" xlink:href="#radial-gradient"/><radialGradient id="radial-gradient-29" cx="781.99" cy="1535.64" r="1.34" gradientTransform="translate(32952.28 10709.92) rotate(134.96) scale(20)" xlink:href="#radial-gradient"/><radialGradient id="radial-gradient-30" cx="647.59" cy="1505.8" r="1.34" gradientTransform="translate(2586.62 -32637.74) rotate(27.46) scale(20)" xlink:href="#radial-gradient"/></defs><g class="cls-1"><g id="Layer_2" data-name="Layer 2"><g id="Layer_1-2" data-name="Layer 1"><path class="cls-2" d="M1231,131a26.72,26.72,0,1,1,3.23,37.66A26.74,26.74,0,0,1,1231,131Z"/><path class="cls-3" d="M1847.55,122.87a26.72,26.72,0,1,1-37.76,1.91A26.74,26.74,0,0,1,1847.55,122.87Z"/><path class="cls-4" d="M1631,11.52a26.72,26.72,0,1,1-37.18-6.77A26.72,26.72,0,0,1,1631,11.52Z"/><path class="cls-5" d="M1569.87,102.83a26.72,26.72,0,1,1,27.7,25.71A26.72,26.72,0,0,1,1569.87,102.83Z"/><path class="cls-6" d="M131.41,319.18a26.72,26.72,0,1,1-35.27-13.57A26.71,26.71,0,0,1,131.41,319.18Z"/><path class="cls-7" d="M597.33,88.06a26.72,26.72,0,1,1-13.62,35.26A26.72,26.72,0,0,1,597.33,88.06Z"/><path class="cls-8" d="M763.64,79.82a26.73,26.73,0,1,1-17.35-33.57A26.72,26.72,0,0,1,763.64,79.82Z"/><path class="cls-9" d="M103.83,336.05a26.72,26.72,0,1,1,35.84-12A26.73,26.73,0,0,1,103.83,336.05Z"/><path class="cls-10" d="M1747.23,113.27a26.72,26.72,0,1,1,36.74,8.89A26.74,26.74,0,0,1,1747.23,113.27Z"/><path class="cls-11" d="M1741.67,353.61a26.72,26.72,0,1,1,36.85-8.35A26.73,26.73,0,0,1,1741.67,353.61Z"/><path class="cls-12" d="M331.42,350.92a26.72,26.72,0,1,1,30.73-22A26.72,26.72,0,0,1,331.42,350.92Z"/><path class="cls-13" d="M47.3,338.67A26.72,26.72,0,1,1,43.76,301,26.7,26.7,0,0,1,47.3,338.67Z"/><path class="cls-14" d="M84.06,182.61a26.72,26.72,0,1,1,29.82,23.21A26.72,26.72,0,0,1,84.06,182.61Z"/><path class="cls-15" d="M12.73,134.56a26.73,26.73,0,1,1,35.94,11.71A26.74,26.74,0,0,1,12.73,134.56Z"/><path class="cls-16" d="M1282.39,244.94a26.72,26.72,0,1,1,1.19-37.78A26.72,26.72,0,0,1,1282.39,244.94Z"/><path class="cls-17" d="M1887,285.18a26.72,26.72,0,1,1,13.48-35.3A26.7,26.7,0,0,1,1887,285.18Z"/><path class="cls-18" d="M1649,312.75a26.72,26.72,0,1,1,16.47-34A26.73,26.73,0,0,1,1649,312.75Z"/><path class="cls-19" d="M2096.75,43.94a26.72,26.72,0,1,1,37.65,3.22A26.72,26.72,0,0,1,2096.75,43.94Z"/><path class="cls-20" d="M2114.5,189a26.72,26.72,0,1,1,3.53,37.62A26.71,26.71,0,0,1,2114.5,189Z"/><path class="cls-21" d="M346,201.23a26.73,26.73,0,1,1,20.46-31.78A26.72,26.72,0,0,1,346,201.23Z"/><path class="cls-22" d="M1682.29,186.92a26.72,26.72,0,1,1,11.23-36.07A26.7,26.7,0,0,1,1682.29,186.92Z"/><path class="cls-23" d="M1080.44,10.51a26.72,26.72,0,1,1-10.1,36.43A26.73,26.73,0,0,1,1080.44,10.51Z"/><path class="cls-24" d="M1460.81,127.15A26.72,26.72,0,1,1,1423,128,26.73,26.73,0,0,1,1460.81,127.15Z"/><path class="cls-25" d="M635.63,51.5a26.72,26.72,0,1,1-21.34,31.19A26.74,26.74,0,0,1,635.63,51.5Z"/><path class="cls-26" d="M929.33,176.13a26.72,26.72,0,1,1-19.15-32.58A26.71,26.71,0,0,1,929.33,176.13Z"/><path class="cls-27" d="M607.28,232.17a26.72,26.72,0,1,1-19.15-32.58A26.72,26.72,0,0,1,607.28,232.17Z"/><path class="cls-28" d="M1294.15,129.3a26.72,26.72,0,1,1,7.85-37A26.72,26.72,0,0,1,1294.15,129.3Z"/><path class="cls-29" d="M320.62,298.76a26.72,26.72,0,1,1-35.11-14A26.71,26.71,0,0,1,320.62,298.76Z"/><path class="cls-30" d="M146.87,95.37a26.73,26.73,0,1,1,37.8,0A26.73,26.73,0,0,1,146.87,95.37Z"/><path class="cls-31" d="M213,69.77a26.72,26.72,0,1,1-11.39-36A26.73,26.73,0,0,1,213,69.77Z"/></g></g></g></svg>